<?xml version="1.0" encoding="UTF-8"?>
<svg xmlns="http://www.w3.org/2000/svg" viewBox="0 0 600 600" width="600" height="600">
  <!-- App-icon variant: 600x600 square with a brand-dark background and
       a 16% safe-zone so the arrow tip never touches the round crop
       (Telegram-bot avatar, iOS apple-touch-icon). Inner icon is the
       same path as logo-icon.svg, fit-by-width inside the safe area
       and vertically centered. -->
  <rect width="600" height="600" rx="120" fill="#121927"/>
  <g transform="translate(96, 115.65) scale(0.8648)">
    <path fill="#AAFF32" d="M0.06 23.83l0 294.05c0,0 -5.53,87.63 88.85,108.37l230.68 0c0,0 68.19,-17.67 80.63,-88.17l0 -210.84 71.58 0 -57.83 -63.63 -57.83 -63.63 -57.83 63.63 -57.83 63.63 71.57 0 0 183.78c0,0 -5.1,27.06 -30.74,27.06l-167.01 0c0,0 -26.08,-1.43 -26.08,-20.21l0 -294.05 -88.17 0z"/>
  </g>
</svg>
